PathFileType	4	(X/Y/Z)	/Users/itak/Documents/Research/Walk-IL/dataset/trc/00008_00004.trc
DataRate	CameraRate	NumFrames	NumMarkers	Units	OrigDataRate	OrigDataStartFrame	OrigNumFrames
100.000000	100.000000	4	53	mm	100.000000	310	620
Frame#	Time	RPSI			LPSI			L3			STRN			T10			C7			CLAV			RBAK			LBAK			LSHO			LUPA			LAEL			LAOL			LWTS			LWPS			LFRA			LIFD			LHPS			LHTS			RSHO			RUPA			RAEL			RAOL			RWTS			RWPS			RFRA			RIFD			RHTS			RHPS			RBHD			LFHD			RFHD			LBHD			LHIP			RHIP			RASI			LASI			LKNE			LTHI			LANK			LTIP			LTOE			LMT1			LMT5			LHEE			RKNE			RTHI			RANK			RTIP			RTOE			RMT1			RMT5			RHEE			
		X1	Y1	Z1	X2	Y2	Z2	X3	Y3	Z3	X4	Y4	Z4	X5	Y5	Z5	X6	Y6	Z6	X7	Y7	Z7	X8	Y8	Z8	X9	Y9	Z9	X10	Y10	Z10	X11	Y11	Z11	X12	Y12	Z12	X13	Y13	Z13	X14	Y14	Z14	X15	Y15	Z15	X16	Y16	Z16	X17	Y17	Z17	X18	Y18	Z18	X19	Y19	Z19	X20	Y20	Z20	X21	Y21	Z21	X22	Y22	Z22	X23	Y23	Z23	X24	Y24	Z24	X25	Y25	Z25	X26	Y26	Z26	X27	Y27	Z27	X28	Y28	Z28	X29	Y29	Z29	X30	Y30	Z30	X31	Y31	Z31	X32	Y32	Z32	X33	Y33	Z33	X34	Y34	Z34	X35	Y35	Z35	X36	Y36	Z36	X37	Y37	Z37	X38	Y38	Z38	X39	Y39	Z39	X40	Y40	Z40	X41	Y41	Z41	X42	Y42	Z42	X43	Y43	Z43	X44	Y44	Z44	X45	Y45	Z45	X46	Y46	Z46	X47	Y47	Z47	X48	Y48	Z48	X49	Y49	Z49	X50	Y50	Z50	X51	Y51	Z51	X52	Y52	Z52	X53	Y53	Z53	

311	3.1	-347.5516357421875	1042.763305664062	-166.2365570068359	-374.1919250488281	1036.735595703125	-327.3306274414062	-366.7415161132812	1109.044921875	-257.4032287597656	-138.1644592285156	1300.995361328125	-277.5037536621094	-390.5	1252.664184570312	-263.8797607421875	-339.8805236816406	1518.886474609375	-281.8529968261719	-182.0110015869141	1426.561645507812	-281.37158203125	-389.3410949707031	1384.559326171875	-197.3302612304688	-361.9181213378906	1477.346313476562	-379.1507568359375	-260.9764404296875	1481.670776367188	-455.8915405273438	-295.7391052246094	1357.650512695312	-532.44287109375	-301.0559997558594	1140.916015625	-559.4344482421875	-356.80419921875	1127.691284179688	-470.166259765625	-189.4990234375	900.793212890625	-498.4048767089844	-264.9729309082031	876.4086303710938	-538.2848510742188	-279.2189025878906	1026.218872070312	-563.289306640625	-142.3802947998047	722.6544799804688	-472.2324829101562	-221.7492828369141	791.5234985351562	-534.512939453125	-156.4794616699219	811.3195190429688	-509.752685546875	-254.3811340332031	1506.616821289062	-110.2679824829102	-266.7899780273438	1436.180419921875	-36.6065559387207	-315.0430908203125	1171.05322265625	-7.316971778869629	-321.7163696289062	1141.550659179688	-102.9405364990234	-195.9181823730469	907.5156860351562	-38.12281036376953	-258.967041015625	895.6372680664062	28.50568580627441	-304.2694702148438	1095.254760742188	9.066275596618652	-183.8997955322266	722.1089477539062	-52.89279937744141	-166.6222839355469	796.5638427734375	-22.90436363220215	-221.2574157714844	793.9312133789062	27.85813522338867	-282.8693542480469	1695.364501953125	-212.075927734375	-101.7784805297852	1711.420288085938	-319.7943420410156	-109.2354507446289	1712.653564453125	-221.5270843505859	-280.1986389160156	1698.04345703125	-356.6389770507812	-296.0960998535156	940.2824096679688	-447.100830078125	-208.2593078613281	948.9150390625	-81.989501953125	-125.1600646972656	981.0850219726562	-173.8056640625	-169.7981872558594	986.4534301757812	-404.6748046875	-260.042236328125	488.6720886230469	-435.829345703125	-280.9433288574219	635.5338745117188	-454.1511840820312	-641.7323608398438	139.794677734375	-424.6171875	-465.6311645507812	326.2380981445312	-446.6593017578125	-479.39599609375	36.32020950317383	-322.438720703125	-524.7835693359375	70.45564270019531	-316.9209594726562	-547.7984619140625	55.85361480712891	-420.2815246582031	-690.4821166992188	199.6405487060547	-383.8406982421875	-83.99004364013672	533.3297119140625	-140.5184783935547	-149.4784851074219	792.77783203125	-89.30620574951172	-138.1614685058594	36.451171875	-158.8343200683594	-84.76438140869141	403.3760070800781	-140.3384857177734	89.96285247802734	43.64975738525391	-215.8223724365234	25.04012870788574	48.22531127929688	-241.790771484375	11.22449684143066	39.27256393432617	-146.0072021484375	-196.3329315185547	37.71319198608398	-200.5855102539062	
312	3.11	-338.9738159179688	1044.244873046875	-164.74658203125	-365.5204162597656	1037.6748046875	-325.8800659179688	-358.0663146972656	1110.21142578125	-255.8280181884766	-129.6102447509766	1302.092529296875	-275.9495544433594	-381.7368469238281	1253.78271484375	-261.9992980957031	-331.308349609375	1520.033447265625	-279.806640625	-173.3873596191406	1427.691162109375	-279.6849060058594	-380.5386352539062	1385.5966796875	-195.3064117431641	-353.4985961914062	1478.604614257812	-377.0941467285156	-252.6679992675781	1482.967407226562	-454.005126953125	-287.8758239746094	1359.099243164062	-530.5550537109375	-294.0010681152344	1142.482055664062	-557.7445678710938	-349.5003051757812	1129.353149414062	-468.3501586914062	-182.9295959472656	902.0034790039062	-497.2789916992188	-258.5382080078125	877.8576049804688	-537.0162353515625	-272.4863586425781	1027.728393554688	-561.8178100585938	-136.1363525390625	723.7469482421875	-471.3995971679688	-215.5235595703125	792.8448486328125	-533.4268188476562	-150.1580352783203	812.4775390625	-508.7353210449219	-245.4739227294922	1507.684814453125	-108.4029846191406	-257.7339782714844	1437.268188476562	-34.70483779907227	-305.8216857910156	1172.109252929688	-5.157092094421387	-312.7444458007812	1142.58935546875	-100.742057800293	-186.8620300292969	908.5296020507812	-36.267822265625	-249.6096343994141	896.72119140625	30.59441184997559	-294.9551086425781	1096.342407226562	11.20095157623291	-174.9509735107422	723.1162109375	-50.98092651367188	-157.5095520019531	797.5908813476562	-21.07822227478027	-211.9943389892578	794.9910278320312	29.85761070251465	-274.1629028320312	1696.42626953125	-209.8481750488281	-93.28851318359375	1712.642578125	-317.8515319824219	-100.5657119750977	1713.737182617188	-219.5639953613281	-271.7746276855469	1699.255981445312	-354.3780212402344	-287.0955505371094	940.7905883789062	-445.4944763183594	-200.0865020751953	950.0018310546875	-80.16486358642578	-116.710334777832	981.979248046875	-171.9414672851562	-161.1567993164062	987.51416015625	-402.82666015625	-242.9083709716797	488.6174011230469	-435.3414611816406	-266.4997253417969	635.636962890625	-453.3033447265625	-632.6178588867188	148.4569244384766	-425.0381469726562	-451.1921081542969	329.5043029785156	-446.66064453125	-474.2225952148438	36.58988952636719	-324.3037414550781	-517.8502197265625	73.53460693359375	-318.1417236328125	-541.7879638671875	61.06546783447266	-421.4147644042969	-679.3370361328125	209.4276123046875	-383.929931640625	-79.92378997802734	532.943603515625	-139.6968841552734	-142.3741912841797	793.1668701171875	-87.89279937744141	-138.1393127441406	36.40140151977539	-158.7410430908203	-81.92165374755859	402.9986267089844	-139.5796051025391	90.00695037841797	43.29341888427734	-215.9323120117188	25.08105087280273	48.10526275634766	-241.8676605224609	11.37172508239746	39.20867156982422	-146.0604248046875	-196.3711242675781	37.68647384643555	-200.4210205078125	
313	3.12	-330.6020202636719	1045.674682617188	-163.3556213378906	-357.0246887207031	1038.600952148438	-324.5435791015625	-349.5783996582031	1111.368530273438	-254.3546447753906	-121.1907501220703	1303.129028320312	-274.4837341308594	-373.1143493652344	1254.91552734375	-260.2088928222656	-322.7932434082031	1521.1806640625	-277.8451538085938	-164.8593139648438	1428.773193359375	-278.089599609375	-371.8231506347656	1386.648559570312	-193.3589019775391	-345.1549072265625	1479.855712890625	-375.1164245605469	-244.4388732910156	1484.216064453125	-452.2139892578125	-280.1246948242188	1360.4921875	-528.74560546875	-287.0650939941406	1143.985107421875	-556.1114501953125	-342.3130187988281	1130.954345703125	-466.5888061523438	-176.4186706542969	903.1998291015625	-496.1811828613281	-252.161376953125	879.2613525390625	-535.7713012695312	-265.8599548339844	1029.180419921875	-560.3922729492188	-129.8702850341797	724.8547973632812	-470.599853515625	-209.3177337646484	794.1409301757812	-532.365966796875	-143.8959350585938	813.607177734375	-507.7586364746094	-236.6285247802734	1508.724853515625	-106.6246871948242	-248.7213745117188	1438.3232421875	-32.8834114074707	-296.621337890625	1173.136962890625	-3.032081127166748	-303.8166198730469	1143.574951171875	-98.57284545898438	-177.7616577148438	909.5427856445312	-34.41664886474609	-240.1970977783203	897.7996215820312	32.68618774414062	-285.6401672363281	1097.389526367188	13.3119945526123	-165.893310546875	724.1240234375	-49.02378463745117	-148.3052215576172	798.635009765625	-19.2322998046875	-202.6343536376953	796.05517578125	31.88432502746582	-265.5394897460938	1697.4501953125	-207.7061462402344	-84.84919738769531	1713.863647460938	-315.9530334472656	-91.97252655029297	1714.79833984375	-217.6455688476562	-263.3895263671875	1700.447509765625	-352.203857421875	-278.2324523925781	941.3245849609375	-444.009521484375	-192.1642761230469	951.0072021484375	-78.43248748779297	-108.4959030151367	982.8026733398438	-170.1310729980469	-152.6495208740234	988.5701904296875	-401.0476379394531	-225.7321624755859	488.7724304199219	-434.5975036621094	-252.0626678466797	635.851318359375	-452.3659973144531	-622.6572265625	156.8902893066406	-425.2692260742188	-436.4426574707031	332.7857360839844	-446.4490966796875	-467.5575866699219	37.1546745300293	-326.7879333496094	-509.496826171875	76.71171569824219	-319.76953125	-534.5467529296875	66.72195434570312	-422.9085998535156	-667.5302734375	218.5657501220703	-383.5408020019531	-76.14179992675781	532.5455322265625	-138.8971710205078	-135.5353088378906	793.501220703125	-86.55269622802734	-138.1436309814453	36.3409538269043	-158.6420745849609	-79.32791137695312	402.6289978027344	-138.8352355957031	90.01202392578125	43.06584930419922	-216.0233764648438	25.08298873901367	48.04086303710938	-241.9321899414062	11.48435211181641	39.1566047668457	-146.1006317138672	-196.4362030029297	37.64823532104492	-200.25537109375	
314	3.13	-322.4266357421875	1047.046020507812	-162.0656585693359	-348.6925659179688	1039.523193359375	-323.322509765625	-341.2733459472656	1112.515380859375	-252.9819946289062	-112.9030380249023	1304.115844726562	-273.1054382324219	-364.6339416503906	1256.063354492188	-258.5111999511719	-314.3408813476562	1522.327758789062	-275.9724731445312	-156.4311065673828	1429.814331054688	-276.5860595703125	-363.200927734375	1387.71728515625	-191.4932861328125	-336.8913879394531	1481.099487304688	-373.2217712402344	-236.2913360595703	1485.423950195312	-450.5191345214844	-272.478515625	1361.834594726562	-527.015380859375	-280.23046875	1145.428955078125	-554.52783203125	-335.2183227539062	1132.498657226562	-464.8709106445312	-169.9693908691406	904.369873046875	-495.1165466308594	-245.8508605957031	880.6177978515625	-534.546142578125	-259.3287048339844	1030.576904296875	-559.0059204101562	-123.6094665527344	725.95703125	-469.8428955078125	-203.1518859863281	795.4046630859375	-531.3318481445312	-137.7061767578125	814.6939697265625	-506.8304748535156	-227.8556823730469	1509.74365234375	-104.9370498657227	-239.7659759521484	1439.351684570312	-31.14776992797852	-287.440673828125	1174.140625	-0.9590016007423401	-294.9242248535156	1144.513061523438	-96.45112609863281	-168.6165466308594	910.5577392578125	-32.57384872436523	-230.7432556152344	898.8765869140625	34.7676887512207	-276.3270874023438	1098.401733398438	15.38098526000977	-156.7368316650391	725.1329956054688	-47.02748107910156	-139.0199737548828	799.6940307617188	-17.36974143981934	-193.1882019042969	797.1292114257812	33.92654800415039	-256.9947814941406	1698.442138671875	-205.6553192138672	-76.45519256591797	1715.075317382812	-314.1037292480469	-83.45000457763672	1715.830200195312	-215.77734375	-255.0379943847656	1701.6279296875	-350.1226806640625	-269.4875793457031	941.9039306640625	-442.6468200683594	-184.4801330566406	951.93359375	-76.79642486572266	-100.5059509277344	983.5704956054688	-168.373046875	-144.2577056884766	989.6272583007812	-399.3414611816406	-208.6010894775391	489.1668090820312	-433.61376953125	-237.6963500976562	636.2028198242188	-451.3425598144531	-611.8243408203125	164.8853759765625	-425.2870178222656	-421.4588012695312	336.0488891601562	-446.0144348144531	-459.2404479980469	38.02828979492188	-329.8981323242188	-499.6419372558594	79.85350799560547	-321.8053588867188	-525.9501342773438	72.654541015625	-424.7491760253906	-655.074951171875	226.8285064697266	-382.6329040527344	-72.61965942382812	532.1371459960938	-138.1032562255859	-128.9489898681641	793.7839965820312	-85.27608489990234	-138.1701812744141	36.27165603637695	-158.5351715087891	-76.96079254150391	402.267333984375	-138.0944976806641	89.98966217041016	42.93839263916016	-216.0925903320312	25.05682945251465	48.0181999206543	-241.9797515869141	11.56706523895264	39.10515975952148	-146.1247100830078	-196.5213165283203	37.60338592529297	-200.0872039794922	
